<svg width="10" height="12" viewBox="0 0 10 12" fill="none" xmlns="http://www.w3.org/2000/svg">
<path d="M6.35401 1.63366C7.10035 1.82178 7.74584 2.16337 8.29047 2.65842C8.84518 3.14356 9.26878 3.74257 9.56127 4.45545C9.85376 5.15842 10 5.93069 10 6.77228H7.83661C7.83661 5.89109 7.72062 5.18317 7.48865 4.64851C7.25668 4.10396 6.87847 3.68812 6.35401 3.40099V6.77228H5.46142V3.13366C5.30005 3.10396 5.13364 3.08911 4.96218 3.08911C4.79072 3.08911 4.62935 3.10396 4.47806 3.13366V6.77228H3.58548V3.40099C3.0711 3.68812 2.69793 4.09901 2.46596 4.63366C2.24407 5.15842 2.13313 5.81683 2.13313 6.60891C2.13313 7.34158 2.2592 7.9901 2.51135 8.55446C2.77358 9.10891 3.13666 9.5396 3.60061 9.84653C4.07463 10.1535 4.62431 10.3069 5.24962 10.3069H8.91074V12H0.544629V10.3663H1.95159V10.3069C1.54816 10.0792 1.19516 9.75743 0.892587 9.34158C0.600101 8.92574 0.378215 8.4604 0.226929 7.94554C0.075643 7.42079 0 6.88119 0 6.32673C0 5.61386 0.146243 4.93564 0.438729 4.29208C0.731215 3.63861 1.14977 3.07921 1.6944 2.61386C2.23903 2.14851 2.86939 1.82178 3.58548 1.63366V0H4.47806V1.4703C4.58901 1.4604 4.76046 1.45545 4.99244 1.45545L5.46142 1.4703V0H6.35401V1.63366Z" fill="#272A37"/>
</svg>
